<mxfile host="app.diagrams.net" modified="2023-07-24T17:52:37.538Z" agent="Mozilla/5.0 (X11; Linux x86_64) AppleWebKit/537.36 (KHTML, like Gecko) Chrome/114.0.0.0 Safari/537.36" etag="D4XD1VhIb0I9YJfXGqWY" version="21.6.5" type="device">
  <diagram name="Page-1" id="BdzhVBKXlTzio4OA69cb">
    <mxGraphModel dx="1509" dy="895" grid="1" gridSize="10" guides="1" tooltips="1" connect="1" arrows="1" fold="1" page="1" pageScale="1" pageWidth="850" pageHeight="1100" math="0" shadow="0">
      <root>
        <mxCell id="0" />
        <mxCell id="1" parent="0" />
        <mxCell id="WTnQzdOtnqARFO61XMNP-7" value="&amp;lt;&amp;lt;device&amp;gt;&amp;gt;&lt;br&gt;&lt;b&gt;AWS RDS Database Server&lt;/b&gt;" style="verticalAlign=top;align=center;spacingTop=8;spacingLeft=2;spacingRight=12;shape=cube;size=10;direction=south;fontStyle=0;html=1;whiteSpace=wrap;" parent="1" vertex="1">
          <mxGeometry x="280" y="260" width="220" height="230" as="geometry" />
        </mxCell>
        <mxCell id="WTnQzdOtnqARFO61XMNP-8" value="&amp;lt;&amp;lt;device&amp;gt;&amp;gt;&lt;br&gt;&lt;b&gt;AWS EC2 Application &lt;br&gt;Server&lt;/b&gt;" style="verticalAlign=top;align=center;spacingTop=8;spacingLeft=2;spacingRight=12;shape=cube;size=10;direction=south;fontStyle=0;html=1;whiteSpace=wrap;" parent="1" vertex="1">
          <mxGeometry x="720" y="285" width="180" height="310" as="geometry" />
        </mxCell>
        <mxCell id="WTnQzdOtnqARFO61XMNP-12" value="" style="endArrow=none;html=1;rounded=0;exitX=0.526;exitY=-0.022;exitDx=0;exitDy=0;exitPerimeter=0;entryX=0.414;entryY=1;entryDx=0;entryDy=0;entryPerimeter=0;" parent="1" source="WTnQzdOtnqARFO61XMNP-7" target="WTnQzdOtnqARFO61XMNP-8" edge="1">
          <mxGeometry width="50" height="50" relative="1" as="geometry">
            <mxPoint x="360" y="460" as="sourcePoint" />
            <mxPoint x="410" y="410" as="targetPoint" />
          </mxGeometry>
        </mxCell>
        <mxCell id="WTnQzdOtnqARFO61XMNP-13" value="&lt;font style=&quot;font-size: 12px;&quot;&gt;&amp;lt;&amp;lt;protocol&amp;gt;&amp;gt;&lt;br&gt;?&lt;br&gt;&lt;/font&gt;" style="text;html=1;align=center;verticalAlign=middle;resizable=0;points=[];autosize=1;strokeColor=none;fillColor=none;" parent="1" vertex="1">
          <mxGeometry x="570" y="355" width="90" height="40" as="geometry" />
        </mxCell>
        <mxCell id="WTnQzdOtnqARFO61XMNP-14" value="«artifact»&lt;br&gt;&lt;b&gt;&amp;nbsp;webserver.js&lt;/b&gt;" style="html=1;whiteSpace=wrap;verticalAlign=middle;" parent="1" vertex="1">
          <mxGeometry x="758.75" y="355" width="102.5" height="60" as="geometry" />
        </mxCell>
        <mxCell id="WTnQzdOtnqARFO61XMNP-15" value="«artifact»&lt;br&gt;&lt;b&gt;&amp;nbsp;messaging.js&lt;/b&gt;" style="html=1;whiteSpace=wrap;verticalAlign=middle;" parent="1" vertex="1">
          <mxGeometry x="758.75" y="430" width="102.5" height="60" as="geometry" />
        </mxCell>
        <mxCell id="WTnQzdOtnqARFO61XMNP-16" value="«artifact»&lt;br&gt;&lt;b&gt;&amp;nbsp;auth.js&lt;/b&gt;" style="html=1;whiteSpace=wrap;verticalAlign=middle;" parent="1" vertex="1">
          <mxGeometry x="758.75" y="510" width="102.5" height="60" as="geometry" />
        </mxCell>
        <mxCell id="WTnQzdOtnqARFO61XMNP-17" value="&amp;lt;&amp;lt;device&amp;gt;&amp;gt;&lt;br&gt;&lt;b&gt;AWS Cognito&lt;/b&gt;" style="verticalAlign=top;align=center;spacingTop=8;spacingLeft=2;spacingRight=12;shape=cube;size=10;direction=south;fontStyle=0;html=1;whiteSpace=wrap;" parent="1" vertex="1">
          <mxGeometry x="300" y="595" width="180" height="60" as="geometry" />
        </mxCell>
        <mxCell id="WTnQzdOtnqARFO61XMNP-18" value="" style="endArrow=none;html=1;rounded=0;entryX=0.422;entryY=1.011;entryDx=0;entryDy=0;entryPerimeter=0;exitX=0;exitY=0;exitDx=25;exitDy=0;exitPerimeter=0;" parent="1" source="WTnQzdOtnqARFO61XMNP-17" target="WTnQzdOtnqARFO61XMNP-8" edge="1">
          <mxGeometry width="50" height="50" relative="1" as="geometry">
            <mxPoint x="330" y="460" as="sourcePoint" />
            <mxPoint x="380" y="410" as="targetPoint" />
          </mxGeometry>
        </mxCell>
        <mxCell id="WTnQzdOtnqARFO61XMNP-19" value="&lt;font style=&quot;font-size: 12px;&quot;&gt;&amp;lt;&amp;lt;protocol&amp;gt;&amp;gt;&lt;br&gt;?&lt;br&gt;&lt;/font&gt;" style="text;html=1;align=center;verticalAlign=middle;resizable=0;points=[];autosize=1;strokeColor=none;fillColor=none;" parent="1" vertex="1">
          <mxGeometry x="580" y="530" width="90" height="40" as="geometry" />
        </mxCell>
        <mxCell id="WTnQzdOtnqARFO61XMNP-21" value="&amp;lt;&amp;lt;device&amp;gt;&amp;gt;&lt;br&gt;&lt;b&gt;Client&lt;/b&gt;" style="verticalAlign=top;align=center;spacingTop=8;spacingLeft=2;spacingRight=12;shape=cube;size=10;direction=south;fontStyle=0;html=1;whiteSpace=wrap;" parent="1" vertex="1">
          <mxGeometry x="1120" y="300" width="250" height="250" as="geometry" />
        </mxCell>
        <mxCell id="WTnQzdOtnqARFO61XMNP-22" value="" style="endArrow=none;html=1;rounded=0;entryX=0;entryY=0;entryDx=150;entryDy=0;entryPerimeter=0;exitX=0;exitY=0;exitDx=130;exitDy=250;exitPerimeter=0;" parent="1" source="WTnQzdOtnqARFO61XMNP-21" target="WTnQzdOtnqARFO61XMNP-8" edge="1">
          <mxGeometry width="50" height="50" relative="1" as="geometry">
            <mxPoint x="1579.9999999999995" y="54.99999999999977" as="sourcePoint" />
            <mxPoint x="780" y="119.99999999999977" as="targetPoint" />
          </mxGeometry>
        </mxCell>
        <mxCell id="WTnQzdOtnqARFO61XMNP-24" value="&lt;font style=&quot;font-size: 12px;&quot;&gt;&amp;lt;&amp;lt;protocol&amp;gt;&amp;gt;&lt;br&gt;REST/HTTP&lt;br&gt;&lt;/font&gt;" style="text;html=1;align=center;verticalAlign=middle;resizable=0;points=[];autosize=1;strokeColor=none;fillColor=none;" parent="1" vertex="1">
          <mxGeometry x="980" y="390" width="90" height="40" as="geometry" />
        </mxCell>
        <mxCell id="WTnQzdOtnqARFO61XMNP-25" value="&lt;font style=&quot;font-size: 12px;&quot;&gt;&amp;lt;&amp;lt;protocol&amp;gt;&amp;gt;&lt;br&gt;WebSocket&lt;br&gt;&lt;/font&gt;" style="text;html=1;align=center;verticalAlign=middle;resizable=0;points=[];autosize=1;strokeColor=none;fillColor=none;" parent="1" vertex="1">
          <mxGeometry x="980" y="440" width="90" height="40" as="geometry" />
        </mxCell>
        <mxCell id="AtPoNYCV9pJhVHp3l6KO-1" value="&amp;lt;&amp;lt;RDBMS&amp;gt;&amp;gt;&lt;br&gt;&lt;b&gt;PostgreSQL&lt;/b&gt;" style="verticalAlign=top;align=center;spacingTop=8;spacingLeft=2;spacingRight=12;shape=cube;size=10;direction=south;fontStyle=0;html=1;whiteSpace=wrap;" parent="1" vertex="1">
          <mxGeometry x="300" y="320" width="160" height="130" as="geometry" />
        </mxCell>
        <mxCell id="WTnQzdOtnqARFO61XMNP-9" value="«database»&lt;br&gt;&lt;b&gt;User Data&lt;/b&gt;" style="html=1;whiteSpace=wrap;verticalAlign=middle;" parent="1" vertex="1">
          <mxGeometry x="320" y="370" width="110" height="60" as="geometry" />
        </mxCell>
        <mxCell id="jhujUbZrO-SEuV42DxTj-1" value="&amp;lt;&amp;lt;executionEnvironment&amp;gt;&amp;gt;&lt;br&gt;&lt;b&gt;Browser&lt;/b&gt;" style="verticalAlign=top;align=center;spacingTop=8;spacingLeft=2;spacingRight=12;shape=cube;size=10;direction=south;fontStyle=0;html=1;whiteSpace=wrap;" vertex="1" parent="1">
          <mxGeometry x="1155" y="360" width="180" height="170" as="geometry" />
        </mxCell>
        <mxCell id="WTnQzdOtnqARFO61XMNP-23" value="«artifact»&lt;br&gt;&lt;b&gt;&amp;nbsp;ReactUI.js&lt;/b&gt;" style="html=1;whiteSpace=wrap;verticalAlign=middle;" parent="1" vertex="1">
          <mxGeometry x="1180" y="430" width="120" height="60" as="geometry" />
        </mxCell>
      </root>
    </mxGraphModel>
  </diagram>
</mxfile>
